<svg width="192" height="192" viewBox="0 0 192 192" fill="none" xmlns="http://www.w3.org/2000/svg">
<path d="M80 1.33332C80 1.99999 77.6 2.66666 74.6667 2.66666C71.7333 2.66666 69.3333 3.19999 69.3333 3.99999C69.3333 4.66666 67.6 5.33332 65.3333 5.33332C63.2 5.33332 61.3333 5.86666 61.3333 6.66666C61.3333 7.33332 60.1333 7.99999 58.6667 7.99999C57.2 7.99999 56 8.53332 56 9.33332C56 9.99999 54.8 10.6667 53.3333 10.6667C51.8667 10.6667 50.6667 11.2 50.6667 12C50.6667 12.6667 49.4667 13.3333 48 13.3333C46.5333 13.3333 45.3333 13.8667 45.3333 14.6667C45.3333 15.3333 44.4 16 43.3333 16C40.6667 16 16 40.6667 16 43.3333C16 44.4 15.4667 45.3333 14.6667 45.3333C14 45.3333 13.3333 46.5333 13.3333 48C13.3333 49.4667 12.8 50.6667 12 50.6667C11.3333 50.6667 10.6667 51.8667 10.6667 53.3333C10.6667 54.8 10.1333 56 9.33333 56C8.66667 56 8 57.2 8 58.6667C8 60.1333 7.46667 61.3333 6.66667 61.3333C6 61.3333 5.33333 63.0667 5.33333 65.3333C5.33333 67.4667 4.8 69.3333 4 69.3333C3.33333 69.3333 2.66667 71.7333 2.66667 74.6667C2.66667 77.6 2.13333 80 1.33333 80C0.533333 80 0 86.2667 0 96C0 105.733 0.533333 112 1.33333 112C2.13333 112 2.66667 114.4 2.66667 117.333C2.66667 120.267 3.33333 122.667 4 122.667C4.8 122.667 5.33333 124.4 5.33333 126.667C5.33333 128.8 6 130.667 6.66667 130.667C7.46667 130.667 8 131.867 8 133.333C8 134.8 8.66667 136 9.33333 136C10.1333 136 10.6667 137.2 10.6667 138.667C10.6667 140.133 11.3333 141.333 12 141.333C12.8 141.333 13.3333 142.533 13.3333 144C13.3333 145.467 14 146.667 14.6667 146.667C15.4667 146.667 16 147.6 16 148.667C16 151.333 40.6667 176 43.3333 176C44.4 176 45.3333 176.533 45.3333 177.333C45.3333 178 46.5333 178.667 48 178.667C49.4667 178.667 50.6667 179.2 50.6667 180C50.6667 180.667 51.8667 181.333 53.3333 181.333C54.8 181.333 56 181.867 56 182.667C56 183.333 57.2 184 58.6667 184C60.1333 184 61.3333 184.533 61.3333 185.333C61.3333 186 63.2 186.667 65.3333 186.667C67.6 186.667 69.3333 187.2 69.3333 188C69.3333 188.667 71.7333 189.333 74.6667 189.333C77.6 189.333 80 189.867 80 190.667C80 191.467 86.2667 192 96 192C105.733 192 112 191.467 112 190.667C112 189.867 114.4 189.333 117.333 189.333C120.267 189.333 122.667 188.667 122.667 188C122.667 187.2 124.533 186.667 126.667 186.667C128.933 186.667 130.667 186 130.667 185.333C130.667 184.533 132.4 184 134.4 184C136.533 184 138.933 182.933 140 181.333C141.067 179.867 142.933 178.667 144.267 178.667C145.6 178.667 146.667 178 146.667 177.333C146.667 176.533 147.6 176 148.667 176C151.333 176 176 151.333 176 148.667C176 147.6 176.667 146.667 177.333 146.667C178.133 146.667 178.667 145.467 178.667 144C178.667 142.533 179.333 141.333 180 141.333C180.8 141.333 181.333 140.133 181.333 138.667C181.333 137.2 182 136 182.667 136C183.467 136 184 134.8 184 133.333C184 131.867 184.667 130.667 185.333 130.667C186.133 130.667 186.667 128.8 186.667 126.667C186.667 124.4 187.333 122.667 188 122.667C188.8 122.667 189.333 120.267 189.333 117.333C189.333 114.4 190 112 190.667 112C191.467 112 192 105.733 192 96C192 86.2667 191.467 80 190.667 80C190 80 189.333 77.6 189.333 74.6667C189.333 71.7333 188.8 69.3333 188 69.3333C187.333 69.3333 186.667 67.4667 186.667 65.3333C186.667 63.0667 186.133 61.3333 185.333 61.3333C184.667 61.3333 184 60.1333 184 58.6667C184 57.2 183.467 56 182.667 56C182 56 181.333 54.8 181.333 53.3333C181.333 51.8667 180.8 50.6667 180 50.6667C179.333 50.6667 178.667 49.4667 178.667 48C178.667 46.5333 178.133 45.3333 177.333 45.3333C176.667 45.3333 176 44.4 176 43.3333C176 40.6667 151.333 16 148.667 16C147.6 16 146.667 15.3333 146.667 14.6667C146.667 13.8667 145.6 13.3333 144.267 13.3333C142.933 13.3333 141.067 12.1333 140 10.6667C138.933 9.06666 136.533 7.99999 134.4 7.99999C132.4 7.99999 130.667 7.33332 130.667 6.66666C130.667 5.86666 128.933 5.33332 126.667 5.33332C124.533 5.33332 122.667 4.66666 122.667 3.99999C122.667 3.19999 120.267 2.66666 117.333 2.66666C114.4 2.66666 112 1.99999 112 1.33332C112 0.533323 105.733 -1.00136e-05 96 -1.00136e-05C86.2667 -1.00136e-05 80 0.533323 80 1.33332ZM74.6667 57.3333C74.6667 58 76.2667 58.6667 78.1333 58.6667C80.2667 58.6667 83.0667 60.2667 85.3333 62.6667C87.3333 64.8 90 66.6667 91.2 66.6667C92.4 66.6667 93.3333 67.2 93.3333 68C93.3333 68.6667 94.5333 69.3333 96 69.3333C97.4667 69.3333 98.6667 68.6667 98.6667 68C98.6667 67.2 99.6 66.6667 100.8 66.6667C102 66.6667 104.667 64.8 106.667 62.6667C108.933 60.2667 111.733 58.6667 113.867 58.6667C115.733 58.6667 117.333 58 117.333 57.3333C117.333 56.5333 120.933 56 125.333 56C129.733 56 133.333 56.5333 133.333 57.3333C133.333 58 134.267 58.6667 135.333 58.6667C138 58.6667 149.333 70 149.333 72.6667C149.333 73.7333 150 74.6667 150.667 74.6667C151.467 74.6667 152 78.6667 152 84C152 89.3333 151.467 93.3333 150.667 93.3333C150 93.3333 149.333 95.0667 149.333 97.3333C149.333 99.4667 148.8 101.333 148 101.333C147.333 101.333 146.667 102.533 146.667 104C146.667 105.467 146.133 106.667 145.333 106.667C144.667 106.667 144 107.6 144 108.8C144 110 142.267 112.667 140 114.667C137.733 116.667 136 119.067 136 119.867C136 121.867 121.867 136 119.867 136C119.067 136 116.133 138.4 113.333 141.333C110.533 144.267 107.333 146.667 106.4 146.667C105.467 146.667 103.733 147.867 102.667 149.333C101.333 151.2 99.2 152 96 152C92.8 152 90.6667 151.2 89.3333 149.333C88.2667 147.867 86.6667 146.667 85.6 146.667C84.6667 146.667 80.9333 143.6 77.3333 140C73.7333 136.267 70.1333 133.333 69.3333 133.333C67.4667 133.333 56 121.867 56 119.867C56 119.067 54.2667 116.667 52 114.667C49.8667 112.667 48 110 48 108.8C48 107.6 47.4667 106.667 46.6667 106.667C46 106.667 45.3333 105.467 45.3333 104C45.3333 102.533 44.8 101.333 44 101.333C43.3333 101.333 42.6667 99.4667 42.6667 97.3333C42.6667 95.0667 42.1333 93.3333 41.3333 93.3333C40.5333 93.3333 40 89.3333 40 84C40 78.6667 40.5333 74.6667 41.3333 74.6667C42.1333 74.6667 42.6667 73.7333 42.6667 72.6667C42.6667 70 54 58.6667 56.6667 58.6667C57.7333 58.6667 58.6667 58 58.6667 57.3333C58.6667 56.5333 62.2667 56 66.6667 56C71.0667 56 74.6667 56.5333 74.6667 57.3333Z" fill="#15D03E"/>
</svg>
