<svg width="208" height="184" viewBox="0 0 208 184" fill="none" xmlns="http://www.w3.org/2000/svg">
<path d="M97.3333 2.66666C96.2667 4.13333 94.5333 5.33333 93.3333 5.33333C92.1333 5.33333 90.4 6.53333 89.3333 8C88.2667 9.46666 86.5333 10.6667 85.3333 10.6667C84.1333 10.6667 82.4 11.8667 81.3333 13.3333C80.2667 14.8 78.4 16 77.0667 16C75.7333 16 74.6667 16.5333 74.6667 17.3333C74.6667 18 73.6 18.6667 72.2667 18.6667C70.9333 18.6667 69.0667 19.8667 68 21.3333C66.9333 22.8 65.2 24 64 24C62.8 24 61.0667 25.2 60 26.6667C58.9333 28.1333 57.2 29.3333 56 29.3333C54.8 29.3333 53.0667 30.5333 52 32C50.9333 33.4667 49.0667 34.6667 47.7333 34.6667C46.4 34.6667 45.3333 35.2 45.3333 36C45.3333 36.6667 44.2667 37.3333 42.9333 37.3333C41.6 37.3333 39.7333 38.5333 38.6667 40C37.6 41.4667 35.8667 42.6667 34.6667 42.6667C33.4667 42.6667 31.7333 43.8667 30.6667 45.3333C29.6 46.8 27.8667 48 26.6667 48C25.4667 48 23.7333 49.2 22.6667 50.6667C21.6 52.1333 19.7333 53.3333 18.4 53.3333C17.0667 53.3333 16 53.8667 16 54.6667C16 55.3333 14.9333 56 13.6 56C12.2667 56 10.4 57.2 9.33333 58.6667C8.26667 60.1333 6.66667 61.3333 5.6 61.3333C2.93333 61.3333 0 64.8 0 68C0 69.4667 1.46667 72.2667 3.33333 74C6.53333 77.3333 10.6667 78.4 10.6667 76C10.6667 75.2 11.8667 74.6667 13.3333 74.6667C14.8 74.6667 16 74 16 73.3333C16 72.5333 17.0667 72 18.4 72C19.7333 72 21.6 70.8 22.6667 69.3333C23.7333 67.8667 25.4667 66.6667 26.6667 66.6667C27.8667 66.6667 29.6 65.4667 30.6667 64C31.7333 62.5333 33.6 61.3333 34.9333 61.3333C36.2667 61.3333 37.3333 60.6667 37.3333 60C37.3333 59.2 38.4 58.6667 39.7333 58.6667C41.0667 58.6667 42.9333 57.4667 44 56C45.0667 54.5333 46.8 53.3333 48 53.3333C49.2 53.3333 50.9333 52.1333 52 50.6667C53.0667 49.2 54.8 48 56 48C57.2 48 58.9333 46.8 60 45.3333C61.0667 43.8667 62.9333 42.6667 64.2667 42.6667C65.6 42.6667 66.6667 42 66.6667 41.3333C66.6667 40.5333 67.7333 40 69.0667 40C70.4 40 72.2667 38.8 73.3333 37.3333C74.4 35.8667 76.1333 34.6667 77.3333 34.6667C78.5333 34.6667 80.2667 33.4667 81.3333 32C82.4 30.5333 84.1333 29.3333 85.3333 29.3333C86.5333 29.3333 88.2667 28.1333 89.3333 26.6667C90.4 25.2 92.2667 24 93.6 24C94.9333 24 96 23.3333 96 22.6667C96 21.8667 97.2 21.3333 98.6667 21.3333C100.133 21.3333 101.333 20.6667 101.333 20C101.333 17.6 108.667 18.5333 110.667 21.3333C111.733 22.8 113.467 24 114.667 24C115.867 24 117.6 25.2 118.667 26.6667C119.733 28.1333 121.467 29.3333 122.667 29.3333C123.867 29.3333 125.6 30.5333 126.667 32C127.733 33.4667 129.6 34.6667 130.933 34.6667C132.267 34.6667 133.333 35.2 133.333 36C133.333 36.6667 134.4 37.3333 135.733 37.3333C137.067 37.3333 138.933 38.5333 140 40C141.067 41.4667 142.8 42.6667 144 42.6667C145.2 42.6667 146.933 43.8667 148 45.3333C149.067 46.8 150.8 48 152 48C153.2 48 154.933 49.2 156 50.6667C157.067 52.1333 158.933 53.3333 160.267 53.3333C161.6 53.3333 162.667 53.8667 162.667 54.6667C162.667 55.3333 163.733 56 165.067 56C166.4 56 168.267 57.2 169.333 58.6667C170.4 60.1333 172.133 61.3333 173.333 61.3333C174.533 61.3333 176.267 62.5333 177.333 64C178.4 65.4667 180.133 66.6667 181.333 66.6667C182.533 66.6667 184.267 67.8667 185.333 69.3333C186.4 70.8 188.267 72 189.6 72C190.933 72 192 72.5333 192 73.3333C192 74 193.2 74.6667 194.667 74.6667C196.133 74.6667 197.333 75.2 197.333 76C197.333 78.4 201.467 77.3333 204.667 74C206.533 72.2667 208 69.4667 208 68C208 64.8 205.067 61.3333 202.4 61.3333C201.333 61.3333 199.733 60.1333 198.667 58.6667C197.6 57.2 195.867 56 194.667 56C193.467 56 191.733 54.8 190.667 53.3333C189.6 51.8667 187.733 50.6667 186.4 50.6667C185.067 50.6667 184 50 184 49.3333C184 48.5333 182.933 48 181.6 48C180.267 48 178.4 46.8 177.333 45.3333C176.267 43.8667 174.533 42.6667 173.333 42.6667C172.133 42.6667 170.4 41.4667 169.333 40C168.267 38.5333 166.533 37.3333 165.333 37.3333C164.133 37.3333 162.4 36.1333 161.333 34.6667C160.267 33.2 158.4 32 157.067 32C155.733 32 154.667 31.3333 154.667 30.6667C154.667 29.8667 153.6 29.3333 152.267 29.3333C150.933 29.3333 149.067 28.1333 148 26.6667C146.933 25.2 145.2 24 144 24C142.8 24 141.067 22.8 140 21.3333C138.933 19.8667 137.2 18.6667 136 18.6667C134.8 18.6667 133.067 17.4667 132 16C130.933 14.5333 129.067 13.3333 127.733 13.3333C126.4 13.3333 125.333 12.6667 125.333 12C125.333 11.2 124.267 10.6667 122.933 10.6667C121.6 10.6667 119.733 9.46666 118.667 8C117.6 6.53333 115.867 5.33333 114.667 5.33333C113.467 5.33333 111.733 4.13333 110.667 2.66666C109.333 0.799996 107.2 -4.03156e-06 104 -4.03156e-06C100.8 -4.03156e-06 98.6667 0.799996 97.3333 2.66666Z" fill="#15D03E"/>
<path d="M100 34.6667C98.9333 36.1333 97.2 37.3333 96 37.3333C94.8 37.3333 93.0667 38.5333 92 40C90.9333 41.4667 89.0667 42.6667 87.7333 42.6667C86.4 42.6667 85.3333 43.2 85.3333 44C85.3333 44.6667 84.2667 45.3333 82.9333 45.3333C81.6 45.3333 79.7333 46.5333 78.6667 48C77.6 49.4667 75.8667 50.6667 74.6667 50.6667C73.4667 50.6667 71.7333 51.8667 70.6667 53.3333C69.6 54.8 67.8667 56 66.6667 56C65.4667 56 63.7333 57.2 62.6667 58.6667C61.6 60.1333 59.7333 61.3333 58.4 61.3333C57.0667 61.3333 56 61.8667 56 62.6667C56 63.3333 54.9333 64 53.6 64C52.2667 64 50.4 65.2 49.3333 66.6667C48.2667 68.1333 46.5333 69.3333 45.3333 69.3333C44.1333 69.3333 42.4 70.5333 41.3333 72C40.2667 73.4667 38.5333 74.6667 37.3333 74.6667C36.1333 74.6667 34.4 75.8667 33.3333 77.3333C32.2667 78.8 30.4 80 29.0667 80C27.7333 80 26.6667 80.5333 26.6667 81.3333C26.6667 82 25.7333 82.6667 24.6667 82.6667C23.4667 82.6667 21.0667 84.1333 19.3333 86L16 89.2V131.333C16 158.4 16.5333 173.333 17.3333 173.333C18.1333 173.333 18.6667 174.267 18.6667 175.467C18.6667 178.133 21.8667 181.333 24.5333 181.333C25.7333 181.333 26.6667 181.867 26.6667 182.667C26.6667 183.467 33.7333 184 45.3333 184H64V162.667C64 149.333 64.5333 141.333 65.3333 141.333C66.1333 141.333 66.6667 140.133 66.6667 138.667C66.6667 137.2 67.3333 136 68 136C68.8 136 69.3333 134.8 69.3333 133.333C69.3333 131.867 70 130.667 70.6667 130.667C71.4667 130.667 72 129.733 72 128.533C72 126 75.2 122.667 77.6 122.667C78.6667 122.667 80.2667 121.467 81.3333 120C82.4 118.533 84.2667 117.333 85.6 117.333C86.9333 117.333 88 116.667 88 116C88 115.2 89.2 114.667 90.6667 114.667C92.1333 114.667 93.3333 114 93.3333 113.333C93.3333 112.533 97.7333 112 104 112C110.267 112 114.667 112.533 114.667 113.333C114.667 114 115.867 114.667 117.333 114.667C118.8 114.667 120 115.2 120 116C120 116.667 121.2 117.333 122.667 117.333C124.133 117.333 125.333 117.867 125.333 118.667C125.333 119.333 126.267 120 127.333 120C130 120 136 126 136 128.667C136 129.733 136.667 130.667 137.333 130.667C138.133 130.667 138.667 131.867 138.667 133.333C138.667 134.8 139.333 136 140 136C140.8 136 141.333 137.2 141.333 138.667C141.333 140.133 142 141.333 142.667 141.333C143.467 141.333 144 149.333 144 162.667V184H162.667C174.267 184 181.333 183.467 181.333 182.667C181.333 181.867 182.267 181.333 183.467 181.333C186.133 181.333 189.333 178.133 189.333 175.467C189.333 174.267 190 173.333 190.667 173.333C191.467 173.333 192 158.4 192 131.333V89.2L188.667 86C186.933 84.1333 184.667 82.6667 183.733 82.6667C182.667 82.6667 181.067 81.4667 180 80C178.933 78.5333 177.067 77.3333 175.733 77.3333C174.4 77.3333 173.333 76.6667 173.333 76C173.333 75.2 172.267 74.6667 170.933 74.6667C169.6 74.6667 167.733 73.4667 166.667 72C165.6 70.5333 163.867 69.3333 162.667 69.3333C161.467 69.3333 159.733 68.1333 158.667 66.6667C157.6 65.2 155.867 64 154.667 64C153.467 64 151.733 62.8 150.667 61.3333C149.6 59.8667 147.733 58.6667 146.4 58.6667C145.067 58.6667 144 58 144 57.3333C144 56.5333 142.933 56 141.6 56C140.267 56 138.4 54.8 137.333 53.3333C136.267 51.8667 134.533 50.6667 133.333 50.6667C132.133 50.6667 130.4 49.4667 129.333 48C128.267 46.5333 126.533 45.3333 125.333 45.3333C124.133 45.3333 122.4 44.1333 121.333 42.6667C120.267 41.2 118.4 40 117.067 40C115.733 40 114.667 39.3333 114.667 38.6667C114.667 37.8667 113.6 37.3333 112.267 37.3333C110.933 37.3333 109.067 36.1333 108 34.6667C106.933 33.2 105.2 32 104 32C102.8 32 101.067 33.2 100 34.6667Z" fill="#15D03E"/>
</svg>
