<svg width="240" height="168" viewBox="0 0 240 168" fill="none" xmlns="http://www.w3.org/2000/svg">
<path d="M9.73333 1.99999C8.8 3.06666 8 5.73332 8 7.99999C8 15.8667 8.66667 16 44 16C79.4667 16 80 16.1333 80 24C80 31.8667 79.4667 32 44 32C8.53333 32 8 32.1333 8 40C8 47.4667 9.6 48 32 48C54.4 48 56 48.5333 56 56C56 63.4667 54.4 64 32 64C9.6 64 8 64.5333 8 72C8 78.2667 10.5333 80 20 80C29.4667 80 32 81.7333 32 88C32 94.2667 29.4667 96 20 96C8.53333 96 8 96.8 8 113.867C8 125.867 7.73333 128 5.86667 128C2.53333 128 0 131.467 0 136C0 142.933 2.26667 144 17.3333 144C31.7333 144 34.6667 145.067 34.6667 150.667C34.6667 153.867 45.6 165.333 48.6667 165.333C49.7333 165.333 50.6667 165.867 50.6667 166.667C50.6667 167.467 54.6667 168 60 168C65.3333 168 69.3333 167.467 69.3333 166.667C69.3333 165.867 70.2667 165.333 71.3333 165.333C74.4 165.333 85.3333 153.867 85.3333 150.667C85.3333 144.267 86.8 144 124 144C161.2 144 162.667 144.267 162.667 150.667C162.667 153.867 173.6 165.333 176.667 165.333C177.733 165.333 178.667 165.867 178.667 166.667C178.667 167.467 182.667 168 188 168C193.333 168 197.333 167.467 197.333 166.667C197.333 165.867 198.267 165.333 199.333 165.333C202.4 165.333 213.333 153.867 213.333 150.667C213.333 145.6 216.4 144 226.667 144C237.467 144 240 142.533 240 136C240 131.467 237.467 128 234.133 128C232.267 128 232 125.333 232 108V88H208H184V69.8667C184 56 184.4 51.3333 185.867 49.8667C187.333 48.5333 191.333 48 200.533 48C212.4 48 213.333 47.8667 213.333 45.3333C213.333 43.8667 212.8 42.6667 212 42.6667C211.333 42.6667 210.667 41.7333 210.667 40.5333C210.667 37.8667 207.467 34.6667 204.8 34.6667C203.6 34.6667 202.667 34 202.667 33.3333C202.667 32.5333 192 32 173.333 32H144V21.3333C144 15.0667 143.467 10.6667 142.667 10.6667C142 10.6667 141.333 9.73333 141.333 8.53333C141.333 5.86666 138.133 2.66666 135.467 2.66666C134.267 2.66666 133.333 1.99999 133.333 1.33332C133.333 0.399991 112.133 -8.76188e-06 72.4 -8.76188e-06C21.3333 0.133325 11.0667 0.399991 9.73333 1.99999ZM68.6667 131.333C71.2 133.733 72 136 72 140C72 147.467 67.4667 152 60 152C52.5333 152 48 147.467 48 140C48 132.4 52.1333 128.133 59.7333 128.133C64.1333 128 66.2667 128.8 68.6667 131.333ZM196.667 131.333C199.2 133.733 200 136 200 140C200 147.467 195.467 152 188 152C180.533 152 176 147.467 176 140C176 132.4 180.133 128.133 187.733 128.133C192.133 128 194.267 128.8 196.667 131.333Z" fill="#15D03E"/>
</svg>
