<svg width="108" height="100" viewBox="0 0 108 100" fill="none" xmlns="http://www.w3.org/2000/svg">
<path d="M0.512981 2C-1.08702 6 1.04631 8 7.04631 8H12.913L19.313 29.6C31.4463 70.9333 31.713 71.7333 35.9796 74C39.0463 75.6 45.0463 76 63.8463 76C88.3796 76 92.7796 75.2 95.5796 70.6667C97.9796 66.9333 108.246 28 107.446 25.8667C106.913 24.2667 100.113 24 66.3796 24H25.9796L23.313 15.0667C19.9796 3.06666 16.7796 -3.96371e-06 7.97965 -3.96371e-06C3.17965 -3.96371e-06 1.04631 0.533329 0.512981 2Z" fill="#0CCE20"/>
<path d="M38.6463 86.6667C37.1796 88.1333 35.9796 90.5333 35.9796 92C35.9796 95.4667 40.513 100 43.9796 100C47.4463 100 51.9796 95.4667 51.9796 92C51.9796 90.5333 50.7796 88.1333 49.313 86.6667C47.8463 85.2 45.4463 84 43.9796 84C42.513 84 40.113 85.2 38.6463 86.6667Z" fill="#0CCE20"/>
<path d="M78.6463 86.6667C77.1796 88.1333 75.9796 90.5333 75.9796 92C75.9796 95.4667 80.513 100 83.9796 100C87.4463 100 91.9796 95.4667 91.9796 92C91.9796 90.5333 90.7796 88.1333 89.313 86.6667C87.8463 85.2 85.4463 84 83.9796 84C82.513 84 80.113 85.2 78.6463 86.6667Z" fill="#0CCE20"/>
</svg>
